<svg viewBox="0 0 256 256" xmlns="http://www.w3.org/2000/svg">
  <path d="M 108 101 C 143 101 143 171 108 171 C 73 171 73 101 108 101" fill="none" stroke="currentColor" stroke-width="6" stroke-linecap="round" stroke-linejoin="round"/>
  <path d="M 138 136 L 133.9855688447222 149.2403086459755 L 124.6511165042282 158.91829571207887 L 112.30083039957034 163.15437444964775 L 99.76248983566212 161.35244942009652 L 89.7414927572188 154.2585072427812 L 84.23717361428253 143.72101033088262 L 84.14732657462743 132.22210766927842 L 89.1383466454298 122.29620668940977 L 97.79494212371175 115.97144620270862 L 108 114.35714285714286 L 117.44624518386642 117.46069996456632 L 124.15722511623109 124.26108881850175 L 126.90012188895982 133.00651477255158 L 125.40433424820131 141.65501099706154 L 120.34911485715078 148.34911485715077 L 113.13851116360627 151.81471121382228 L 105.52945284140037 151.59842086468464 L 99.20841201213973 148.10058275872242 L 95.41771501199712 142.41099441417916 L 94.71428571428572 136 L 96.90696877385483 130.34781827824264 L 101.17329414123171 126.60384547961668 L 106.31385994467351 125.35413067172811 L 111.07251182978519 126.5437809236939 L 114.43972247152034 129.56027752847967 L 115.86659604192705 133.44398800367009 L 115.3441683039967 137.16320198647773 L 113.33951216287466 139.87938266513032" fill="none" stroke="currentColor" stroke-width="6" stroke-linecap="round" stroke-linejoin="round"/>
  <path d="M 134 154 C 162 146 184 160 202 142" fill="none" stroke="currentColor" stroke-width="6" stroke-linecap="round" stroke-linejoin="round"/>
  <path d="M 188 148 L 202 124" fill="none" stroke="currentColor" stroke-width="6" stroke-linecap="round" stroke-linejoin="round"/>
  <path d="M 192 148 L 212 130" fill="none" stroke="currentColor" stroke-width="6" stroke-linecap="round" stroke-linejoin="round"/>
  <path d="M 204 118.5 C 207.5 118.5 207.5 125.5 204 125.5 C 200.5 125.5 200.5 118.5 204 118.5" fill="none" stroke="currentColor" stroke-width="6" stroke-linecap="round" stroke-linejoin="round"/>
  <path d="M 214 124.5 C 217.5 124.5 217.5 131.5 214 131.5 C 210.5 131.5 210.5 124.5 214 124.5" fill="none" stroke="currentColor" stroke-width="6" stroke-linecap="round" stroke-linejoin="round"/>
  <path d="M 78 174 Q 128 192 204 174" fill="none" stroke="currentColor" stroke-width="6" stroke-linecap="round" stroke-linejoin="round"/>
</svg>
