<svg viewBox="0 0 256 256" xmlns="http://www.w3.org/2000/svg">
  <path d="M 108 103 C 141 103 141 169 108 169 C 75 169 75 103 108 103" fill="none" stroke="currentColor" stroke-width="6" stroke-linecap="round" stroke-linejoin="round"/>
  <path d="M 136 136 L 132.25319758840737 148.35762140291047 L 123.54104207061299 157.39040933127362 L 112.01410837293233 161.34408281967123 L 100.31165717995131 159.6622861254234 L 90.9587265734042 153.0412734265958 L 85.82136203999701 143.2062763088238 L 85.7375048029856 132.4739671579932 L 90.39579020240114 123.2097929101158 L 98.4752793154643 117.30668312252804 L 108 115.8 L 116.816495504942 118.6966533002619 L 123.08007677514902 125.0436828972683 L 125.64011376302916 133.20608045438146 L 124.24404529832123 141.2780102639241 L 119.52584053334073 147.52584053334073 L 112.79594375269919 150.76039713290078 L 105.69415598530702 150.55852614037232 L 99.79451787799708 147.29387724147426 L 96.25653401119732 141.9835947865672 L 95.6 136 L 97.64650418893116 130.72463039302647 L 101.62840786514958 127.23025578097557 L 106.42626928169528 126.06385529361292 L 110.8676777077995 127.17419552878097 L 114.01040764008566 129.98959235991435 L 115.34215630579858 133.6143888034254 L 114.85455708373026 137.08565518737922 L 112.98354468534967 139.62075715412163" fill="none" stroke="currentColor" stroke-width="6" stroke-linecap="round" stroke-linejoin="round"/>
  <path d="M 134 154 C 162 148 184 160 202 144" fill="none" stroke="currentColor" stroke-width="6" stroke-linecap="round" stroke-linejoin="round"/>
  <path d="M 188 148 L 202 124" fill="none" stroke="currentColor" stroke-width="6" stroke-linecap="round" stroke-linejoin="round"/>
  <path d="M 192 148 L 212 130" fill="none" stroke="currentColor" stroke-width="6" stroke-linecap="round" stroke-linejoin="round"/>
  <path d="M 204 118.5 C 207.5 118.5 207.5 125.5 204 125.5 C 200.5 125.5 200.5 118.5 204 118.5" fill="none" stroke="currentColor" stroke-width="6" stroke-linecap="round" stroke-linejoin="round"/>
  <path d="M 214 124.5 C 217.5 124.5 217.5 131.5 214 131.5 C 210.5 131.5 210.5 124.5 214 124.5" fill="none" stroke="currentColor" stroke-width="6" stroke-linecap="round" stroke-linejoin="round"/>
  <path d="M 78 174 Q 128 190 204 174" fill="none" stroke="currentColor" stroke-width="6" stroke-linecap="round" stroke-linejoin="round"/>
</svg>
