<svg viewBox="0 0 256 256" xmlns="http://www.w3.org/2000/svg">
  <path d="M 108 104 C 140 104 140 168 108 168 C 76 168 76 104 108 104" fill="none" stroke="currentColor" stroke-width="6" stroke-linecap="round" stroke-linejoin="round"/>
  <path d="M 135 136 L 131.38701196024996 147.91627778137794 L 122.98600485380538 156.62646614087097 L 111.87074735961332 160.43893700468297 L 100.58624085209591 158.81720447808686 L 91.56734348149692 152.43265651850308 L 86.61345625285426 142.94890929779436 L 86.53259391716469 132.5998969023506 L 91.02451198088681 123.6665860204688 L 98.81544791134058 117.97430158243776 L 108 116.52142857142857 L 116.50162066547978 119.31462996810968 L 122.54150260460798 125.43497993665157 L 125.01010970006384 133.30586329529643 L 123.66390082338118 141.08950989735538 L 119.1142033714357 147.1142033714357 L 112.62466004724564 150.23324009244004 L 105.77650755726033 150.0385787782162 L 100.08757081092575 146.8905244828502 L 96.67594351079741 141.76989497276125 L 96.04285714285714 136 L 98.01627189646933 130.91303645041836 L 101.85596472710853 127.54346093165502 L 106.48247395020617 126.41871760455531 L 110.76526064680667 127.48940283132451 L 113.7957502243683 130.2042497756317 L 115.07993643773435 133.69958920330308 L 114.60975147359703 137.04688178782996 L 112.80556094658719 139.4914443986173" fill="none" stroke="currentColor" stroke-width="6" stroke-linecap="round" stroke-linejoin="round"/>
  <path d="M 134 154 C 162 149 184 160 202 145" fill="none" stroke="currentColor" stroke-width="6" stroke-linecap="round" stroke-linejoin="round"/>
  <path d="M 188 148 L 202 124" fill="none" stroke="currentColor" stroke-width="6" stroke-linecap="round" stroke-linejoin="round"/>
  <path d="M 192 148 L 212 130" fill="none" stroke="currentColor" stroke-width="6" stroke-linecap="round" stroke-linejoin="round"/>
  <path d="M 204 118.5 C 207.5 118.5 207.5 125.5 204 125.5 C 200.5 125.5 200.5 118.5 204 118.5" fill="none" stroke="currentColor" stroke-width="6" stroke-linecap="round" stroke-linejoin="round"/>
  <path d="M 214 124.5 C 217.5 124.5 217.5 131.5 214 131.5 C 210.5 131.5 210.5 124.5 214 124.5" fill="none" stroke="currentColor" stroke-width="6" stroke-linecap="round" stroke-linejoin="round"/>
  <path d="M 78 174 Q 128 189 204 174" fill="none" stroke="currentColor" stroke-width="6" stroke-linecap="round" stroke-linejoin="round"/>
</svg>
