<svg viewBox="0 0 256 256" xmlns="http://www.w3.org/2000/svg">
  <path d="M 108 102 C 142 102 142 170 108 170 C 74 170 74 102 108 102" fill="none" stroke="currentColor" stroke-width="6" stroke-linecap="round" stroke-linejoin="round"/>
  <path d="M 137 136 L 133.11938321656478 148.798965024443 L 124.0960792874206 158.15435252167623 L 112.15746938625134 162.2492286346595 L 100.03707350780671 160.50736777275998 L 90.35010966531149 153.6498903346885 L 85.02926782713976 143.4636433198532 L 84.9424156888065 132.3480374136358 L 89.76706842391548 122.75299979976278 L 98.13511071958803 116.63906466261832 L 108 115.07857142857142 L 117.1313703444042 118.0786766324141 L 123.61865094569005 124.65238585788502 L 126.27011782599449 133.10629761346652 L 124.82418977326127 141.46651063049282 L 119.93747769524575 147.93747769524575 L 112.96722745815273 151.2875541733615 L 105.6118044133537 151.07847350252848 L 99.5014649450684 147.69723000009836 L 95.83712451159721 142.1972946003732 L 95.15714285714286 136 L 97.27673648139299 130.53622433563456 L 101.40085100319064 126.91705063029613 L 106.3700646131844 125.70899298267052 L 110.97009476879235 126.85898822623744 L 114.225065055803 129.774934944197 L 115.60437617386282 133.52918840354775 L 115.09936269386347 137.12442858692847 L 113.16152842411216 139.75006990962598" fill="none" stroke="currentColor" stroke-width="6" stroke-linecap="round" stroke-linejoin="round"/>
  <path d="M 134 154 C 162 147 184 160 202 143" fill="none" stroke="currentColor" stroke-width="6" stroke-linecap="round" stroke-linejoin="round"/>
  <path d="M 188 148 L 202 124" fill="none" stroke="currentColor" stroke-width="6" stroke-linecap="round" stroke-linejoin="round"/>
  <path d="M 192 148 L 212 130" fill="none" stroke="currentColor" stroke-width="6" stroke-linecap="round" stroke-linejoin="round"/>
  <path d="M 204 118.5 C 207.5 118.5 207.5 125.5 204 125.5 C 200.5 125.5 200.5 118.5 204 118.5" fill="none" stroke="currentColor" stroke-width="6" stroke-linecap="round" stroke-linejoin="round"/>
  <path d="M 214 124.5 C 217.5 124.5 217.5 131.5 214 131.5 C 210.5 131.5 210.5 124.5 214 124.5" fill="none" stroke="currentColor" stroke-width="6" stroke-linecap="round" stroke-linejoin="round"/>
  <path d="M 78 174 Q 128 191 204 174" fill="none" stroke="currentColor" stroke-width="6" stroke-linecap="round" stroke-linejoin="round"/>
</svg>
