<svg viewBox="0 0 256 256" xmlns="http://www.w3.org/2000/svg">
  <path d="M 108 100 C 144 100 144 172 108 172 C 72 172 72 100 108 100" fill="none" stroke="currentColor" stroke-width="6" stroke-linecap="round" stroke-linejoin="round"/>
  <path d="M 139 136 L 134.8517544728796 149.681652267508 L 125.2061537210358 159.6822389024815 L 112.44419141288935 164.059520264636 L 99.48790616351752 162.1975310674331 L 89.1328758491261 154.8671241508739 L 83.44507940142528 143.97837734191205 L 83.35223746044834 132.09617792492105 L 88.50962486694412 121.83941357905677 L 97.45477352783548 115.3038277427989 L 108 113.63571428571429 L 117.76112002332863 116.84272329671853 L 124.69579928677213 123.86979177911847 L 127.53012595192514 132.90673193163664 L 125.98447872314135 141.84351136363026 L 120.7607520190558 148.7607520190558 L 113.30979486905981 152.341868254283 L 105.44710126944705 152.1183682268408 L 98.91535907921104 148.50393551734652 L 94.99830551239702 142.62469422798515 L 94.27142857142857 136 L 96.53720106631664 130.15941222085073 L 100.94573727927276 126.29064032893724 L 106.25765527616264 124.99926836078572 L 111.17492889077803 126.22857362115036 L 114.6543798872377 129.3456201127623 L 116.12881590999129 133.35878760379242 L 115.58897391412992 137.201975386027 L 113.51749590163715 140.00869542063467" fill="none" stroke="currentColor" stroke-width="6" stroke-linecap="round" stroke-linejoin="round"/>
  <path d="M 134 154 C 162 145 184 160 202 141" fill="none" stroke="currentColor" stroke-width="6" stroke-linecap="round" stroke-linejoin="round"/>
  <path d="M 188 148 L 202 124" fill="none" stroke="currentColor" stroke-width="6" stroke-linecap="round" stroke-linejoin="round"/>
  <path d="M 192 148 L 212 130" fill="none" stroke="currentColor" stroke-width="6" stroke-linecap="round" stroke-linejoin="round"/>
  <path d="M 204 118.5 C 207.5 118.5 207.5 125.5 204 125.5 C 200.5 125.5 200.5 118.5 204 118.5" fill="none" stroke="currentColor" stroke-width="6" stroke-linecap="round" stroke-linejoin="round"/>
  <path d="M 214 124.5 C 217.5 124.5 217.5 131.5 214 131.5 C 210.5 131.5 210.5 124.5 214 124.5" fill="none" stroke="currentColor" stroke-width="6" stroke-linecap="round" stroke-linejoin="round"/>
  <path d="M 78 174 Q 128 193 204 174" fill="none" stroke="currentColor" stroke-width="6" stroke-linecap="round" stroke-linejoin="round"/>
</svg>
