<svg viewBox="0 0 256 256" xmlns="http://www.w3.org/2000/svg">
  <path d="M 72 142 L 74.96243767155407 149.92255434835027 L 83.41267819554184 150.29179606750063 L 76.79332484212757 155.55744565164974 L 79.05342302750968 163.70820393249937 L 72 159.04 L 64.94657697249032 163.70820393249937 L 67.20667515787243 155.55744565164974 L 60.587321804458156 150.29179606750063 L 69.03756232844593 149.92255434835027 Z" fill="none" stroke="currentColor" stroke-width="7" stroke-linecap="round" stroke-linejoin="round"/>
  <path d="M 118 94 L 120.4686980596284 100.60212862362522 L 127.51056516295154 100.90983005625053 L 121.99443736843965 105.29787137637479 L 123.87785252292473 112.09016994374947 L 118 108.2 L 112.12214747707527 112.09016994374947 L 114.00556263156035 105.29787137637479 L 108.48943483704846 100.90983005625053 L 115.5313019403716 100.60212862362522 Z" fill="none" stroke="currentColor" stroke-width="7" stroke-linecap="round" stroke-linejoin="round"/>
  <path d="M 164 120 L 166.96243767155406 127.92255434835026 L 175.41267819554184 128.29179606750063 L 168.79332484212756 133.55744565164974 L 171.05342302750967 141.70820393249937 L 164 137.04 L 156.94657697249033 141.70820393249937 L 159.20667515787244 133.55744565164974 L 152.58732180445816 128.29179606750063 L 161.03756232844594 127.92255434835026 Z" fill="none" stroke="currentColor" stroke-width="7" stroke-linecap="round" stroke-linejoin="round"/>
  <path d="M 202 75 L 204.22182825366554 80.94191576126269 L 210.55950864665638 81.21884705062547 L 205.59499363159568 85.16808423873731 L 207.29006727063225 91.28115294937453 L 202 87.78 L 196.70993272936775 91.28115294937453 L 198.40500636840432 85.16808423873731 L 193.44049135334362 81.21884705062547 L 199.77817174633446 80.9419157612627 Z" fill="none" stroke="currentColor" stroke-width="7" stroke-linecap="round" stroke-linejoin="round"/>
  <path d="M 72 154 C 118 104 164 132 202 84" fill="none" stroke="currentColor" stroke-width="7" stroke-linecap="round" stroke-linejoin="round"/>
</svg>
