<svg viewBox="0 0 256 256" xmlns="http://www.w3.org/2000/svg">
  <path d="M 72 142 L 74.96243767155407 149.92255434835027 L 83.41267819554184 150.29179606750063 L 76.79332484212757 155.55744565164974 L 79.05342302750968 163.70820393249937 L 72 159.04 L 64.94657697249032 163.70820393249937 L 67.20667515787243 155.55744565164974 L 60.587321804458156 150.29179606750063 L 69.03756232844593 149.92255434835027 Z" fill="none" stroke="currentColor" stroke-width="7" stroke-linecap="round" stroke-linejoin="round"/>
  <path d="M 118 95 L 120.4686980596284 101.60212862362522 L 127.51056516295154 101.90983005625053 L 121.99443736843965 106.29787137637479 L 123.87785252292473 113.09016994374947 L 118 109.2 L 112.12214747707527 113.09016994374947 L 114.00556263156035 106.29787137637479 L 108.48943483704846 101.90983005625053 L 115.5313019403716 101.60212862362522 Z" fill="none" stroke="currentColor" stroke-width="7" stroke-linecap="round" stroke-linejoin="round"/>
  <path d="M 164 119 L 166.96243767155406 126.92255434835026 L 175.41267819554184 127.29179606750063 L 168.79332484212756 132.55744565164974 L 171.05342302750967 140.70820393249937 L 164 136.04 L 156.94657697249033 140.70820393249937 L 159.20667515787244 132.55744565164974 L 152.58732180445816 127.29179606750063 L 161.03756232844594 126.92255434835026 Z" fill="none" stroke="currentColor" stroke-width="7" stroke-linecap="round" stroke-linejoin="round"/>
  <path d="M 202 76 L 204.22182825366554 81.94191576126269 L 210.55950864665638 82.21884705062547 L 205.59499363159568 86.16808423873731 L 207.29006727063225 92.28115294937453 L 202 88.78 L 196.70993272936775 92.28115294937453 L 198.40500636840432 86.16808423873731 L 193.44049135334362 82.21884705062547 L 199.77817174633446 81.9419157612627 Z" fill="none" stroke="currentColor" stroke-width="7" stroke-linecap="round" stroke-linejoin="round"/>
  <path d="M 72 154 C 118 105 164 131 202 85" fill="none" stroke="currentColor" stroke-width="7" stroke-linecap="round" stroke-linejoin="round"/>
</svg>
