<svg viewBox="0 0 256 256" xmlns="http://www.w3.org/2000/svg">
  <path d="M 72 142 L 74.96243767155407 149.92255434835027 L 83.41267819554184 150.29179606750063 L 76.79332484212757 155.55744565164974 L 79.05342302750968 163.70820393249937 L 72 159.04 L 64.94657697249032 163.70820393249937 L 67.20667515787243 155.55744565164974 L 60.587321804458156 150.29179606750063 L 69.03756232844593 149.92255434835027 Z" fill="none" stroke="currentColor" stroke-width="7" stroke-linecap="round" stroke-linejoin="round"/>
  <path d="M 118 92 L 120.4686980596284 98.60212862362522 L 127.51056516295154 98.90983005625053 L 121.99443736843965 103.29787137637479 L 123.87785252292473 110.09016994374947 L 118 106.2 L 112.12214747707527 110.09016994374947 L 114.00556263156035 103.29787137637479 L 108.48943483704846 98.90983005625053 L 115.5313019403716 98.60212862362522 Z" fill="none" stroke="currentColor" stroke-width="7" stroke-linecap="round" stroke-linejoin="round"/>
  <path d="M 164 122 L 166.96243767155406 129.92255434835027 L 175.41267819554184 130.29179606750063 L 168.79332484212756 135.55744565164974 L 171.05342302750967 143.70820393249937 L 164 139.04 L 156.94657697249033 143.70820393249937 L 159.20667515787244 135.55744565164974 L 152.58732180445816 130.29179606750063 L 161.03756232844594 129.92255434835027 Z" fill="none" stroke="currentColor" stroke-width="7" stroke-linecap="round" stroke-linejoin="round"/>
  <path d="M 202 73 L 204.22182825366554 78.94191576126269 L 210.55950864665638 79.21884705062547 L 205.59499363159568 83.16808423873731 L 207.29006727063225 89.28115294937453 L 202 85.78 L 196.70993272936775 89.28115294937453 L 198.40500636840432 83.16808423873731 L 193.44049135334362 79.21884705062547 L 199.77817174633446 78.9419157612627 Z" fill="none" stroke="currentColor" stroke-width="7" stroke-linecap="round" stroke-linejoin="round"/>
  <path d="M 72 154 C 118 102 164 134 202 82" fill="none" stroke="currentColor" stroke-width="7" stroke-linecap="round" stroke-linejoin="round"/>
</svg>
