<svg viewBox="0 0 256 256" xmlns="http://www.w3.org/2000/svg">
  <path d="M 145.0930249626464 110.36672431872485 Q 167 118 145.0930249626464 125.63327568127515" fill="none" stroke="currentColor" stroke-width="7" stroke-linecap="round" stroke-linejoin="round"/>
  <path d="M 140.541711776087 131.89762086565756 Q 140.05166278062296 155.091204135511 126.02235862137888 136.61524468218363" fill="none" stroke="currentColor" stroke-width="7" stroke-linecap="round" stroke-linejoin="round"/>
  <path d="M 118.65817919208017 134.22247773901125 Q 96.44833721937705 140.92362483940644 109.68472544780754 121.87157824121006" fill="none" stroke="currentColor" stroke-width="7" stroke-linecap="round" stroke-linejoin="round"/>
  <path d="M 109.68472544780754 114.12842175878994 Q 96.44833721937705 95.07637516059356 118.65817919208017 101.77752226098873" fill="none" stroke="currentColor" stroke-width="7" stroke-linecap="round" stroke-linejoin="round"/>
  <path d="M 126.02235862137887 99.38475531781638 Q 140.05166278062293 80.90879586448901 140.541711776087 104.10237913434243" fill="none" stroke="currentColor" stroke-width="7" stroke-linecap="round" stroke-linejoin="round"/>
  <path d="M 128 103 C 143 103 143 133 128 133 C 113 133 113 103 128 103" fill="none" stroke="currentColor" stroke-width="7" stroke-linecap="round" stroke-linejoin="round"/>
  <path d="M 128 133 Q 131 164 130 202" fill="none" stroke="currentColor" stroke-width="7" stroke-linecap="round" stroke-linejoin="round"/>
  <path d="M 128 166 C 121.16 153.96 98.36 152.56 105.96000000000001 157.88 C 108.24 163.2 123.44 165.16 128 166" fill="none" stroke="currentColor" stroke-width="7" stroke-linecap="round" stroke-linejoin="round"/>
</svg>
