<svg viewBox="0 0 256 256" xmlns="http://www.w3.org/2000/svg">
  <path d="M 143.3398941972468 111.14962438859922 Q 163 118 143.3398941972468 124.85037561140078" fill="none" stroke="currentColor" stroke-width="7" stroke-linecap="round" stroke-linejoin="round"/>
  <path d="M 139.255382363155 130.47222385379524 Q 138.81559480312316 151.28697807033038 126.22519363457079 134.70598881734426" fill="none" stroke="currentColor" stroke-width="7" stroke-linecap="round" stroke-linejoin="round"/>
  <path d="M 119.61631465955912 132.55863386834343 Q 99.68440519687684 138.57248383023656 111.5632151454683 121.47449329339365" fill="none" stroke="currentColor" stroke-width="7" stroke-linecap="round" stroke-linejoin="round"/>
  <path d="M 111.5632151454683 114.52550670660636 Q 99.68440519687684 97.42751616976344 119.61631465955912 103.44136613165657" fill="none" stroke="currentColor" stroke-width="7" stroke-linecap="round" stroke-linejoin="round"/>
  <path d="M 126.22519363457079 101.29401118265572 Q 138.81559480312316 84.71302192966962 139.255382363155 105.52777614620474" fill="none" stroke="currentColor" stroke-width="7" stroke-linecap="round" stroke-linejoin="round"/>
  <path d="M 128 104.6 C 141.4 104.6 141.4 131.4 128 131.4 C 114.6 131.4 114.6 104.6 128 104.6" fill="none" stroke="currentColor" stroke-width="7" stroke-linecap="round" stroke-linejoin="round"/>
  <path d="M 128 133 Q 127 164 130 202" fill="none" stroke="currentColor" stroke-width="7" stroke-linecap="round" stroke-linejoin="round"/>
  <path d="M 128 166 C 121.16 153.96 98.36 152.56 105.96000000000001 157.88 C 108.24 163.2 123.44 165.16 128 166" fill="none" stroke="currentColor" stroke-width="7" stroke-linecap="round" stroke-linejoin="round"/>
</svg>
