<svg viewBox="0 0 256 256" xmlns="http://www.w3.org/2000/svg">
  <path d="M 143.77817688859668 110.95389937113063 Q 164 118 143.77817688859668 125.04610062886937" fill="none" stroke="currentColor" stroke-width="7" stroke-linecap="round" stroke-linejoin="round"/>
  <path d="M 139.576964716388 130.8285731067608 Q 139.12461179749812 152.23803458662553 126.17448488127282 135.1833027835541" fill="none" stroke="currentColor" stroke-width="7" stroke-linecap="round" stroke-linejoin="round"/>
  <path d="M 119.37678079268939 132.9745948360104 Q 98.8753882025019 139.16026908252903 111.09359272105311 121.57376453034774" fill="none" stroke="currentColor" stroke-width="7" stroke-linecap="round" stroke-linejoin="round"/>
  <path d="M 111.09359272105311 114.42623546965226 Q 98.8753882025019 96.83973091747097 119.37678079268939 103.0254051639896" fill="none" stroke="currentColor" stroke-width="7" stroke-linecap="round" stroke-linejoin="round"/>
  <path d="M 126.1744848812728 100.81669721644589 Q 139.1246117974981 83.76196541337447 139.576964716388 105.17142689323917" fill="none" stroke="currentColor" stroke-width="7" stroke-linecap="round" stroke-linejoin="round"/>
  <path d="M 128 104.2 C 141.8 104.2 141.8 131.8 128 131.8 C 114.2 131.8 114.2 104.2 128 104.2" fill="none" stroke="currentColor" stroke-width="7" stroke-linecap="round" stroke-linejoin="round"/>
  <path d="M 128 133 Q 128 164 130 202" fill="none" stroke="currentColor" stroke-width="7" stroke-linecap="round" stroke-linejoin="round"/>
  <path d="M 128 166 C 121.16 153.96 98.36 152.56 105.96000000000001 157.88 C 108.24 163.2 123.44 165.16 128 166" fill="none" stroke="currentColor" stroke-width="7" stroke-linecap="round" stroke-linejoin="round"/>
</svg>
