<svg viewBox="0 0 256 256" xmlns="http://www.w3.org/2000/svg">
  <path d="M 144.6547422712965 110.56244933619344 Q 166 118 144.6547422712965 125.43755066380656" fill="none" stroke="currentColor" stroke-width="7" stroke-linecap="round" stroke-linejoin="round"/>
  <path d="M 140.220129422854 131.541271612692 Q 139.742645786248 154.14014761921584 126.07306737467685 136.13793071597377" fill="none" stroke="currentColor" stroke-width="7" stroke-linecap="round" stroke-linejoin="round"/>
  <path d="M 118.8977130589499 133.80651677134432 Q 97.257354213752 140.33583958711398 110.15434787222273 121.77230700425595" fill="none" stroke="currentColor" stroke-width="7" stroke-linecap="round" stroke-linejoin="round"/>
  <path d="M 110.15434787222273 114.22769299574405 Q 97.257354213752 95.66416041288602 118.8977130589499 102.1934832286557" fill="none" stroke="currentColor" stroke-width="7" stroke-linecap="round" stroke-linejoin="round"/>
  <path d="M 126.07306737467685 99.86206928402622 Q 139.742645786248 81.85985238078416 140.220129422854 104.45872838730801" fill="none" stroke="currentColor" stroke-width="7" stroke-linecap="round" stroke-linejoin="round"/>
  <path d="M 128 103.4 C 142.6 103.4 142.6 132.6 128 132.6 C 113.4 132.6 113.4 103.4 128 103.4" fill="none" stroke="currentColor" stroke-width="7" stroke-linecap="round" stroke-linejoin="round"/>
  <path d="M 128 133 Q 130 164 130 202" fill="none" stroke="currentColor" stroke-width="7" stroke-linecap="round" stroke-linejoin="round"/>
  <path d="M 128 166 C 121.16 153.96 98.36 152.56 105.96000000000001 157.88 C 108.24 163.2 123.44 165.16 128 166" fill="none" stroke="currentColor" stroke-width="7" stroke-linecap="round" stroke-linejoin="round"/>
</svg>
