<svg viewBox="0 0 256 256" xmlns="http://www.w3.org/2000/svg">
  <path d="M 144.2164595799466 110.75817435366204 Q 165 118 144.2164595799466 125.24182564633796" fill="none" stroke="currentColor" stroke-width="7" stroke-linecap="round" stroke-linejoin="round"/>
  <path d="M 139.898547069621 131.18492235972641 Q 139.43362879187305 153.18909110292068 126.12377612797484 135.66061674976396" fill="none" stroke="currentColor" stroke-width="7" stroke-linecap="round" stroke-linejoin="round"/>
  <path d="M 119.13724692581965 133.39055580367736 Q 98.06637120812695 139.74805433482152 110.62397029663792 121.67303576730185" fill="none" stroke="currentColor" stroke-width="7" stroke-linecap="round" stroke-linejoin="round"/>
  <path d="M 110.62397029663792 114.32696423269815 Q 98.06637120812695 96.2519456651785 119.13724692581964 102.60944419632264" fill="none" stroke="currentColor" stroke-width="7" stroke-linecap="round" stroke-linejoin="round"/>
  <path d="M 126.12377612797484 100.33938325023605 Q 139.43362879187305 82.81090889707932 139.898547069621 104.81507764027359" fill="none" stroke="currentColor" stroke-width="7" stroke-linecap="round" stroke-linejoin="round"/>
  <path d="M 128 103.8 C 142.2 103.8 142.2 132.2 128 132.2 C 113.8 132.2 113.8 103.8 128 103.8" fill="none" stroke="currentColor" stroke-width="7" stroke-linecap="round" stroke-linejoin="round"/>
  <path d="M 128 133 Q 129 164 130 202" fill="none" stroke="currentColor" stroke-width="7" stroke-linecap="round" stroke-linejoin="round"/>
  <path d="M 128 166 C 121.16 153.96 98.36 152.56 105.96000000000001 157.88 C 108.24 163.2 123.44 165.16 128 166" fill="none" stroke="currentColor" stroke-width="7" stroke-linecap="round" stroke-linejoin="round"/>
</svg>
