<svg viewBox="0 0 256 256" xmlns="http://www.w3.org/2000/svg">
  <path d="M 94 212 C 92.2 155.76 87.52 105.44 82 64" fill="none" stroke="currentColor" stroke-width="7" stroke-linecap="round" stroke-linejoin="round"/>
  <path d="M 132 214 C 132.75 153.2 134.7 98.80000000000001 137 54" fill="none" stroke="currentColor" stroke-width="7" stroke-linecap="round" stroke-linejoin="round"/>
  <path d="M 170 212 C 172.55 158.04 179.18 109.76 187 70" fill="none" stroke="currentColor" stroke-width="7" stroke-linecap="round" stroke-linejoin="round"/>
  <path d="M 88 54 C 96 54 96 110 88 110 C 80 110 80 54 88 54" fill="none" stroke="currentColor" stroke-width="7" stroke-linecap="round" stroke-linejoin="round"/>
  <path d="M 139 41 C 148 41 148 103 139 103 C 130 103 130 41 139 41" fill="none" stroke="currentColor" stroke-width="7" stroke-linecap="round" stroke-linejoin="round"/>
  <path d="M 178 61 C 186 61 186 115 178 115 C 170 115 170 61 178 61" fill="none" stroke="currentColor" stroke-width="7" stroke-linecap="round" stroke-linejoin="round"/>
</svg>
