<svg viewBox="0 0 256 256" xmlns="http://www.w3.org/2000/svg">
  <path d="M 94 212 C 92.2 157.28 87.52 108.32000000000001 82 68" fill="none" stroke="currentColor" stroke-width="7" stroke-linecap="round" stroke-linejoin="round"/>
  <path d="M 132 214 C 132.75 154.34 134.7 100.96000000000001 137 57" fill="none" stroke="currentColor" stroke-width="7" stroke-linecap="round" stroke-linejoin="round"/>
  <path d="M 170 212 C 172.55 159.56 179.18 112.64 187 74" fill="none" stroke="currentColor" stroke-width="7" stroke-linecap="round" stroke-linejoin="round"/>
  <path d="M 88 55 C 96 55 96 111 88 111 C 80 111 80 55 88 55" fill="none" stroke="currentColor" stroke-width="7" stroke-linecap="round" stroke-linejoin="round"/>
  <path d="M 139 40 C 148 40 148 102 139 102 C 130 102 130 40 139 40" fill="none" stroke="currentColor" stroke-width="7" stroke-linecap="round" stroke-linejoin="round"/>
  <path d="M 178 62 C 186 62 186 116 178 116 C 170 116 170 62 178 62" fill="none" stroke="currentColor" stroke-width="7" stroke-linecap="round" stroke-linejoin="round"/>
</svg>
