<svg viewBox="0 0 256 256" xmlns="http://www.w3.org/2000/svg">
  <path d="M 94 212 C 92.2 158.8 87.52 111.2 82 72" fill="none" stroke="currentColor" stroke-width="7" stroke-linecap="round" stroke-linejoin="round"/>
  <path d="M 132 214 C 132.75 155.48 134.7 103.12 137 60" fill="none" stroke="currentColor" stroke-width="7" stroke-linecap="round" stroke-linejoin="round"/>
  <path d="M 170 212 C 172.55 161.07999999999998 179.18 115.52000000000001 187 78" fill="none" stroke="currentColor" stroke-width="7" stroke-linecap="round" stroke-linejoin="round"/>
  <path d="M 88 56 C 96 56 96 112 88 112 C 80 112 80 56 88 56" fill="none" stroke="currentColor" stroke-width="7" stroke-linecap="round" stroke-linejoin="round"/>
  <path d="M 139 39 C 148 39 148 101 139 101 C 130 101 130 39 139 39" fill="none" stroke="currentColor" stroke-width="7" stroke-linecap="round" stroke-linejoin="round"/>
  <path d="M 178 63 C 186 63 186 117 178 117 C 170 117 170 63 178 63" fill="none" stroke="currentColor" stroke-width="7" stroke-linecap="round" stroke-linejoin="round"/>
</svg>
