<svg viewBox="0 0 256 256" xmlns="http://www.w3.org/2000/svg">
  <path d="M 70 184 Q 96 163 122 184" fill="none" stroke="currentColor" stroke-width="7" stroke-linecap="round" stroke-linejoin="round"/>
  <path d="M 118 184 Q 142 169 176 184" fill="none" stroke="currentColor" stroke-width="7" stroke-linecap="round" stroke-linejoin="round"/>
  <path d="M 84 204 Q 128 187 190 205" fill="none" stroke="currentColor" stroke-width="7" stroke-linecap="round" stroke-linejoin="round"/>
  <path d="M 86 169 C 93 169 93 183 86 183 C 79 183 79 169 86 169" fill="none" stroke="currentColor" stroke-width="7" stroke-linecap="round" stroke-linejoin="round"/>
  <path d="M 146 165 C 151 165 151 175 146 175 C 141 175 141 165 146 165" fill="none" stroke="currentColor" stroke-width="7" stroke-linecap="round" stroke-linejoin="round"/>
  <path d="M 172 186 C 176 186 176 194 172 194 C 168 194 168 186 172 186" fill="none" stroke="currentColor" stroke-width="7" stroke-linecap="round" stroke-linejoin="round"/>
</svg>
